<svg xmlns="http://www.w3.org/2000/svg" viewBox="0 0 295.58 178.99"><defs><style>.cls-1{fill:#034423;}.cls-2{fill:#00a651;}</style></defs><g id="Layer_2" data-name="Layer 2"><g id="Layer_1-2" data-name="Layer 1"><path class="cls-1" d="M68.18.6a5.06,5.06,0,0,1,0,10.12l-23.71-.23-5.21-.05C37.34,26.78,32.47,104.92,36.55,139a5.06,5.06,0,0,1-4.42,5.62,4.26,4.26,0,0,1-.61,0,5.07,5.07,0,0,1-5-4.46C22.35,105.51,27,30,29.1,10.34c-11.87-.12-22.45-.22-24-.22A5.06,5.06,0,0,1,5.06,0C7.38,0,27.14.2,44.57.37L68.18.6Z"/><path class="cls-1" d="M140.87,124.66a4.25,4.25,0,0,1-.71,6c-6.9,5.44-14.29,8.17-22,8.17-27.94,0-51.42-22.62-62.73-43.25,0,12.2.49,32.35,1.43,40.21a4.24,4.24,0,0,1-3.7,4.72l-.51,0a4.25,4.25,0,0,1-4.21-3.74c-3.77-31.55,1.13-103.37,2.58-112,0,0,0,0,0-.05a.43.43,0,0,1,0-.05.36.36,0,0,1,0-.1l.06-.28.06-.17a1.42,1.42,0,0,1,.07-.22l.09-.2a1.22,1.22,0,0,1,.07-.17l.12-.21a1.09,1.09,0,0,1,.08-.15L51.7,23l.1-.15.14-.16c0-.06.09-.11.13-.16l.13-.13.18-.16.12-.1a1.56,1.56,0,0,1,.2-.16l.12-.08.22-.14.15-.08.21-.11.2-.08.17-.07.27-.08.11,0h.09a64.37,64.37,0,0,1,14-1.75c28.14,0,42.87,17.41,42.87,34.6,0,25.7-25.51,37.34-47.44,40.12,6.7,11.29,28.36,36.06,54.27,36.06,6,0,11.56-2.06,17-6.35a4.24,4.24,0,0,1,6,.7ZM55.76,86.4c19.73-.7,46.84-9.55,46.84-32.27,0-13-11.81-26.12-34.39-26.12a58,58,0,0,0-9.22.92C58,37.72,56.39,62,55.76,86.4Z"/><path class="cls-1" d="M214.43,126.61a4.45,4.45,0,0,1-2.76,2c-5.71,1.34-32.58,2.8-39.48,2.8h-2.38c-5.34,0-12.1-.29-16.37-4.54a12.34,12.34,0,0,1-3.51-9.11c0-13,16.75-39.64,32.95-65.4C193,36.2,205.68,16.1,205.68,11.17c0-.34-1.81-2.16-9.81-2.16-4.26,0-21.08,1.49-32.22,2.47-4.56.4-8.51.75-11,.95a4.44,4.44,0,0,1-.7-8.85c2.42-.19,6.35-.54,10.89-.94,12.63-1.12,28.36-2.51,33-2.51,16.25,0,18.68,6.91,18.68,11,0,7.15-8.73,21.38-24.16,45.91-14.07,22.38-31.59,50.23-31.59,60.67a3.61,3.61,0,0,0,.9,2.83c2,2,7.63,2,11.36,2h1.13c6.92,0,32.86-1.48,37.45-2.56a4.44,4.44,0,0,1,4.79,6.65Z"/><path class="cls-1" d="M295.58,64.88c0,36.42-18.53,66.05-41.3,66.05-11.3,0-21.51-6.89-28.74-19.4C218.8,99.86,215.09,84,215.09,66.81c0-36.51,18.38-66.21,41-66.21S295.58,28.24,295.58,64.88Zm-9.24,0c0-30.86-13.3-55-30.28-55-7.91,0-15.6,5.63-21.65,15.87-6.5,11-10.08,25.6-10.08,41.1s3.27,29.81,9.21,40.1c5.51,9.53,12.88,14.79,20.74,14.79s15.8-5.77,21.83-15.82C282.71,94.89,286.34,80.33,286.34,64.88Z"/><path class="cls-1" d="M133.42,4.82a1,1,0,0,0-.23-.28,4.25,4.25,0,0,0-2.37-1,10,10,0,0,0-2.62.09c-.92.12-1.83.27-2.74.45a1.53,1.53,0,0,0-.77.33c-.39.39-.34,1.18-.4,1.69-.08.78-.14,1.56-.19,2.34-.09,1.51-.15,3-.26,4.54-.17,2.62-.32,5.25-.48,7.87q-.3,5.37-.52,10.74-.25,5.94-.42,11.87-.18,6.23-.25,12.45c0,4.17,0,8.34,0,12.51q.08,6,.32,12,.15,3.47.39,6.93a4.52,4.52,0,0,0,4.51,4.21h.31a4.51,4.51,0,0,0,4.2-4.82c-.27-3.91-.44-7.83-.56-11.75q-.18-6.21-.17-12.44c0-4.2,0-8.4.12-12.6s.2-8.15.35-12.23c.13-3.76.3-7.53.49-11.29q.24-4.92.55-9.83c.23-3.75.52-7.5.8-11.25a1.08,1.08,0,0,0,0-.44Z"/><path class="cls-2" d="M137.42,101.1c-3-5.13-10.65-5.48-15.15-2.33-9.13,6.4-4.5,22.18,7.24,19.86a9.16,9.16,0,0,0,5.47-3.54l.2.18a14.56,14.56,0,0,0,2.4-6.33C138,106.59,138.87,103.45,137.42,101.1Z"/><path class="cls-1" d="M18.73,163.41a10.8,10.8,0,0,1,.86-4.38,8.69,8.69,0,0,1,2.3-3.14,10.35,10.35,0,0,1,3.19-1.83,11,11,0,0,1,3.67-.62,11.84,11.84,0,0,1,5.37,1.25v3a8.36,8.36,0,0,0-4.86-1.4,7.85,7.85,0,0,0-5.18,1.81,6.57,6.57,0,0,0-2.22,5.32,6.36,6.36,0,0,0,1.14,3.8,6.46,6.46,0,0,0,2.78,2.3,8.83,8.83,0,0,0,3.53.7,7.91,7.91,0,0,0,4.95-1.46v3.05a12.32,12.32,0,0,1-5.49,1.25,11.17,11.17,0,0,1-3.64-.61,11,11,0,0,1-3.21-1.77,8.09,8.09,0,0,1-2.33-3A10.09,10.09,0,0,1,18.73,163.41Z"/><path class="cls-1" d="M43.44,161.87A5,5,0,0,1,45.68,160a6.31,6.31,0,0,1,3.21-.52v2.84a5.21,5.21,0,0,0-3.13.46,4.09,4.09,0,0,0-2,2.08v7.85H40.87v-13h2.57Z"/><path class="cls-1" d="M53.7,166.21a7.45,7.45,0,0,1,.59-3A5.65,5.65,0,0,1,55.86,161,7.29,7.29,0,0,1,58,159.8a6.58,6.58,0,0,1,2.3-.42,7.57,7.57,0,0,1,2.68.46,5.07,5.07,0,0,1,1.93,1.24,6.53,6.53,0,0,1,1.19,1.81,5.53,5.53,0,0,1,.49,2.15,10.69,10.69,0,0,1-.19,2.25H56.61a3.25,3.25,0,0,0,1.62,2.48,6.6,6.6,0,0,0,3.35.82,9.27,9.27,0,0,0,4.1-.92v2.48a10.63,10.63,0,0,1-4.64.9,7.79,7.79,0,0,1-5.25-1.79A6.24,6.24,0,0,1,53.7,166.21Zm10.07-1.07a3,3,0,0,0-.66-2.23,3.15,3.15,0,0,0-2.72-1.12,4,4,0,0,0-2.63.89,3.24,3.24,0,0,0-1.18,2.46Z"/><path class="cls-1" d="M84.12,169.7a.84.84,0,0,0,.95.94,3,3,0,0,0,.86-.16v2.08a4.81,4.81,0,0,1-1.83.32,2.52,2.52,0,0,1-2.59-1.51,7.56,7.56,0,0,1-4.89,1.68,5,5,0,0,1-3.21-1,3.5,3.5,0,0,1-1.33-2.93,3.59,3.59,0,0,1,1.7-3.31,7.73,7.73,0,0,1,4.08-1,16.82,16.82,0,0,1,3.38.38v-.46a2.48,2.48,0,0,0-.9-2,3.78,3.78,0,0,0-2.51-.75,11.56,11.56,0,0,0-4.67,1v-2.64a15.27,15.27,0,0,1,5-.87,6.38,6.38,0,0,1,4.41,1.41,5.38,5.38,0,0,1,1.58,4.26Zm-5.69-2.95a5.14,5.14,0,0,0-2.41.52,1.72,1.72,0,0,0-1,1.62,1.67,1.67,0,0,0,.7,1.42,2.94,2.94,0,0,0,1.73.5,5.15,5.15,0,0,0,3.76-1.54v-2.19A13.89,13.89,0,0,0,78.43,166.75Z"/><path class="cls-1" d="M92.52,155.82l2.86-.7v4.61h4.7v2.54h-4.7v5.94A2.28,2.28,0,0,0,96,170a2.84,2.84,0,0,0,1.88.51,7.1,7.1,0,0,0,2.62-.51v2.48A10.16,10.16,0,0,1,97,173,4.79,4.79,0,0,1,93.75,172a4,4,0,0,1-1.23-3.22v-6.48H90.2v-2.54h2.32Z"/><path class="cls-1" d="M109.86,155.52a1.66,1.66,0,0,1-.5,1.29,1.88,1.88,0,0,1-1.26.44,1.9,1.9,0,0,1-1.27-.44,1.63,1.63,0,0,1-.51-1.29,1.56,1.56,0,0,1,.51-1.25,1.86,1.86,0,0,1,1.27-.45,1.84,1.84,0,0,1,1.26.45A1.58,1.58,0,0,1,109.86,155.52Zm-.33,17.17h-2.89v-13h2.89Z"/><path class="cls-1" d="M126.49,159.73h3.16l-5.57,13h-3l-5.53-13h3.13l3.94,9.83Z"/><path class="cls-1" d="M134.18,166.21a7.45,7.45,0,0,1,.6-3,5.53,5.53,0,0,1,1.56-2.16,7.34,7.34,0,0,1,2.11-1.22,6.57,6.57,0,0,1,2.29-.42,7.63,7.63,0,0,1,2.69.46,5.15,5.15,0,0,1,1.93,1.24,6.76,6.76,0,0,1,1.19,1.81A5.52,5.52,0,0,1,147,165a10.68,10.68,0,0,1-.18,2.25H137.1a3.2,3.2,0,0,0,1.62,2.48,6.57,6.57,0,0,0,3.35.82,9.3,9.3,0,0,0,4.1-.92v2.48a10.63,10.63,0,0,1-4.64.9,7.79,7.79,0,0,1-5.25-1.79A6.25,6.25,0,0,1,134.18,166.21Zm10.07-1.07a3,3,0,0,0-.66-2.23,3.13,3.13,0,0,0-2.71-1.12,4,4,0,0,0-2.63.89,3.24,3.24,0,0,0-1.18,2.46Z"/><path class="cls-1" d="M164.53,172.69h-3.27l8-18.9h3.38l8,18.9h-3.24l-1.67-4.07H166.2Zm6.05-14.84-3.32,8.07h7.34l-3.32-8.07c-.14-.4-.26-.75-.35-1.06C170.84,157.1,170.72,157.45,170.58,157.85Z"/><path class="cls-1" d="M187,171.06a7.45,7.45,0,0,1,0-9.69,5.94,5.94,0,0,1,4.64-2,6.12,6.12,0,0,1,5,2.38v-2h2.59v12.8a5.73,5.73,0,0,1-2.09,4.86,8.32,8.32,0,0,1-5.17,1.6,11.61,11.61,0,0,1-5.35-1.22v-2.65a9.61,9.61,0,0,0,5,1.33q4.75,0,4.75-3.84V171a5.83,5.83,0,0,1-4.67,2.08A5.94,5.94,0,0,1,187,171.06Zm9.28-6.44a4.81,4.81,0,0,0-1.6-1.92,4.24,4.24,0,0,0-2.53-.78,3.81,3.81,0,0,0-2.89,1.2,4.8,4.8,0,0,0,0,6.19,3.81,3.81,0,0,0,2.89,1.2,4.52,4.52,0,0,0,4.13-2.54Z"/><path class="cls-1" d="M205.76,166.21a7.62,7.62,0,0,1,.59-3,5.65,5.65,0,0,1,1.57-2.16,7.43,7.43,0,0,1,2.1-1.22,6.62,6.62,0,0,1,2.3-.42,7.63,7.63,0,0,1,2.69.46,5.15,5.15,0,0,1,1.93,1.24,6.73,6.73,0,0,1,1.18,1.81,5.53,5.53,0,0,1,.49,2.15,10.06,10.06,0,0,1-.19,2.25h-9.75a3.25,3.25,0,0,0,1.62,2.48,6.62,6.62,0,0,0,3.35.82,9.31,9.31,0,0,0,4.11-.92v2.48a10.68,10.68,0,0,1-4.65.9,7.83,7.83,0,0,1-5.25-1.79A6.27,6.27,0,0,1,205.76,166.21Zm10.07-1.07a3,3,0,0,0-.66-2.23,3.14,3.14,0,0,0-2.71-1.12,4,4,0,0,0-2.64.89,3.2,3.2,0,0,0-1.17,2.46Z"/><path class="cls-1" d="M227.71,161.52a5.64,5.64,0,0,1,4.51-2.14,5,5,0,0,1,5.34,5.3v8h-2.88v-7.64a2.83,2.83,0,0,0-3-3.1,4.32,4.32,0,0,0-3.62,2.16v8.58h-2.89v-13h2.57Z"/><path class="cls-1" d="M244,166.32a6.32,6.32,0,0,1,2.13-5.15,7.59,7.59,0,0,1,5-1.79,7.7,7.7,0,0,1,4,1V163a6,6,0,0,0-3.59-1.08,5.06,5.06,0,0,0-3.27,1.07,3.81,3.81,0,0,0-1.35,3.19,3.88,3.88,0,0,0,1.34,3.18,4.93,4.93,0,0,0,3.23,1.09,7.42,7.42,0,0,0,3.78-1v2.67a9.81,9.81,0,0,1-4.3.9,7.37,7.37,0,0,1-4.91-1.75A6.12,6.12,0,0,1,244,166.32Z"/><path class="cls-1" d="M267.7,169.51l3.86-9.78h3l-6.07,14.72c-1.25,3-3,4.51-5.22,4.51a7.21,7.21,0,0,1-1.7-.22v-2.45a4.59,4.59,0,0,0,1.33.19q2.07,0,3.21-3l.27-.65-6.16-13.07h3.08Z"/></g></g></svg>