<svg xmlns="http://www.w3.org/2000/svg" viewBox="0 0 391.12 391.12"><defs><style>.cls-1{fill:#fff;}.cls-2{fill:#034423;}.cls-3{fill:#00a651;}</style></defs><g id="Layer_2" data-name="Layer 2"><g id="Layer_1-2" data-name="Layer 1"><circle class="cls-1" cx="195.56" cy="195.56" r="195.56"/><path class="cls-2" d="M116,101.79a5.06,5.06,0,1,1,0,10.12l-23.71-.23L87,111.62C85.12,128,80.24,206.1,84.32,240.19a5.07,5.07,0,0,1-4.42,5.63c-.2,0-.41,0-.61,0a5.06,5.06,0,0,1-5-4.45c-4.15-34.7.49-110.2,2.6-129.88-11.87-.12-22.45-.22-24-.22a5.06,5.06,0,1,1,0-10.11c2.33,0,22.08.19,39.51.37l23.61.23Z"/><path class="cls-2" d="M188.64,225.85a4.23,4.23,0,0,1-.71,6c-6.9,5.45-14.28,8.18-22,8.18-27.94,0-51.42-22.62-62.73-43.25,0,12.2.49,32.34,1.43,40.21a4.24,4.24,0,0,1-3.7,4.71l-.51,0A4.24,4.24,0,0,1,96.17,238c-3.77-31.56,1.13-103.38,2.58-112a.13.13,0,0,0,0-.06.07.07,0,0,0,0,0,.29.29,0,0,0,0-.09c0-.1,0-.19.07-.29a1.54,1.54,0,0,1,0-.17l.07-.21.09-.21.07-.16.12-.22.08-.14.13-.2a1.71,1.71,0,0,1,.11-.14l.13-.17.14-.15.13-.13a1.29,1.29,0,0,1,.17-.16l.12-.11.2-.15.13-.09.21-.13.15-.08.21-.11.2-.08.18-.07.26-.08.11,0h.1a64.78,64.78,0,0,1,14-1.74c28.15,0,42.87,17.4,42.87,34.59,0,25.71-25.51,37.35-47.44,40.13,6.7,11.29,28.36,36.06,54.27,36.06,5.95,0,11.56-2.07,17-6.36a4.23,4.23,0,0,1,5.95.71Zm-85.11-38.26c19.73-.7,46.84-9.55,46.84-32.28,0-13-11.81-26.11-34.39-26.11a56.91,56.91,0,0,0-9.22.92C105.82,138.91,104.17,163.15,103.53,187.59Z"/><path class="cls-2" d="M262.2,227.8a4.43,4.43,0,0,1-2.76,2c-5.71,1.35-32.57,2.8-39.48,2.8h-2.38c-5.34,0-12.1-.3-16.37-4.55a12.36,12.36,0,0,1-3.51-9.11c0-13,16.75-39.64,33-65.39,10.16-16.15,22.8-36.25,22.8-41.19,0-.33-1.81-2.16-9.81-2.16-4.25,0-21.08,1.49-32.21,2.48-4.57.4-8.51.75-11,.94a4.43,4.43,0,0,1-.7-8.84c2.42-.19,6.35-.54,10.89-.94,12.64-1.12,28.36-2.51,33-2.51,16.26,0,18.68,6.91,18.68,11,0,7.14-8.73,21.37-24.16,45.91-14.07,22.37-31.58,50.22-31.58,60.67a3.63,3.63,0,0,0,.89,2.82c2,2,7.63,2,11.36,2H220c6.92,0,32.86-1.48,37.45-2.56a4.44,4.44,0,0,1,4.79,6.65Z"/><path class="cls-2" d="M343.35,166.07c0,36.42-18.53,66.05-41.3,66.05-11.3,0-21.51-6.89-28.74-19.41-6.74-11.66-10.45-27.54-10.45-44.71,0-36.51,18.38-66.22,41-66.22S343.35,129.42,343.35,166.07Zm-9.24,0c0-30.87-13.3-55-30.28-55-7.91,0-15.6,5.64-21.65,15.88-6.5,11-10.08,25.6-10.08,41.1s3.27,29.81,9.21,40.09c5.51,9.54,12.88,14.79,20.74,14.79s15.8-5.77,21.83-15.82C330.48,196.07,334.11,181.51,334.11,166.07Z"/><path class="cls-2" d="M181.19,106a1.28,1.28,0,0,0-.23-.29,4.27,4.27,0,0,0-2.37-1,10.46,10.46,0,0,0-2.62.08c-.92.12-1.83.27-2.73.46a1.56,1.56,0,0,0-.78.33c-.39.38-.34,1.17-.4,1.69-.07.77-.13,1.56-.18,2.34-.1,1.51-.16,3-.26,4.53-.18,2.63-.33,5.25-.49,7.88q-.3,5.37-.52,10.74-.26,5.92-.42,11.86-.18,6.22-.25,12.45t0,12.51q.06,6,.32,12c.1,2.31.22,4.62.38,6.93a4.53,4.53,0,0,0,4.51,4.21h.32a4.54,4.54,0,0,0,4.2-4.83c-.28-3.91-.45-7.82-.56-11.74-.13-4.15-.18-8.29-.18-12.44s0-8.41.12-12.61.2-8.15.35-12.22c.14-3.77.3-7.53.49-11.3.16-3.28.34-6.55.55-9.83.23-3.75.52-7.5.8-11.24a1.08,1.08,0,0,0,0-.44Z"/><path class="cls-3" d="M185.19,202.29c-3-5.14-10.65-5.49-15.15-2.33-9.13,6.39-4.49,22.18,7.24,19.86a9.15,9.15,0,0,0,5.47-3.55l.21.18a14.77,14.77,0,0,0,2.4-6.32C185.79,207.78,186.64,204.63,185.19,202.29Z"/><path class="cls-2" d="M71.28,274.94a10.39,10.39,0,0,1,.83-4.22,8.43,8.43,0,0,1,2.21-3,9.81,9.81,0,0,1,3.07-1.76,10.53,10.53,0,0,1,3.54-.6,11.36,11.36,0,0,1,5.17,1.2v2.88a8,8,0,0,0-4.68-1.35,7.59,7.59,0,0,0-5,1.74,6.37,6.37,0,0,0-2.13,5.13,6.12,6.12,0,0,0,1.09,3.66,6.24,6.24,0,0,0,2.68,2.21,8.61,8.61,0,0,0,3.41.68,7.6,7.6,0,0,0,4.75-1.41V283a11.82,11.82,0,0,1-5.28,1.2,10.69,10.69,0,0,1-3.51-.59,10.38,10.38,0,0,1-3.09-1.7A7.78,7.78,0,0,1,72.11,279,9.68,9.68,0,0,1,71.28,274.94Z"/><path class="cls-2" d="M95.07,273.45a4.88,4.88,0,0,1,2.16-1.82,6.07,6.07,0,0,1,3.09-.49v2.73a5,5,0,0,0-3,.44,3.93,3.93,0,0,0-1.92,2v7.57H92.6V271.4h2.47Z"/><path class="cls-2" d="M105,277.64a7.24,7.24,0,0,1,.57-2.92,5.52,5.52,0,0,1,1.51-2.08,6.7,6.7,0,0,1,2-1.17,6.31,6.31,0,0,1,2.21-.41,7.33,7.33,0,0,1,2.59.44,5,5,0,0,1,1.86,1.2,6.1,6.1,0,0,1,1.14,1.74,5.48,5.48,0,0,1,.47,2.07,10,10,0,0,1-.18,2.17h-9.39a3.09,3.09,0,0,0,1.56,2.38,6.25,6.25,0,0,0,3.22.79,8.94,8.94,0,0,0,4-.88v2.39a10.4,10.4,0,0,1-4.48.86,7.49,7.49,0,0,1-5-1.72A6,6,0,0,1,105,277.64Zm9.7-1a2.87,2.87,0,0,0-.64-2.14,3,3,0,0,0-2.61-1.08,3.87,3.87,0,0,0-2.53.85,3.14,3.14,0,0,0-1.14,2.37Z"/><path class="cls-2" d="M134.25,281a.81.81,0,0,0,.91.91,3.24,3.24,0,0,0,.84-.15v2a4.69,4.69,0,0,1-1.77.31,2.45,2.45,0,0,1-2.5-1.45,7.28,7.28,0,0,1-4.7,1.61,4.9,4.9,0,0,1-3.1-1,3.38,3.38,0,0,1-1.27-2.82,3.45,3.45,0,0,1,1.64-3.19,7.35,7.35,0,0,1,3.92-1,16.07,16.07,0,0,1,3.25.36v-.44a2.37,2.37,0,0,0-.86-1.92,3.58,3.58,0,0,0-2.41-.73,11,11,0,0,0-4.5,1v-2.55a14.9,14.9,0,0,1,4.78-.83,6.18,6.18,0,0,1,4.25,1.35,5.22,5.22,0,0,1,1.52,4.11Zm-5.48-2.83a5.07,5.07,0,0,0-2.32.49,1.65,1.65,0,0,0-.93,1.56,1.58,1.58,0,0,0,.67,1.37,2.82,2.82,0,0,0,1.67.48,4.9,4.9,0,0,0,3.61-1.48v-2.11A13.23,13.23,0,0,0,128.77,278.16Z"/><path class="cls-2" d="M142.34,267.63l2.76-.68v4.45h4.52v2.44H145.1v5.72a2.12,2.12,0,0,0,.56,1.69,2.67,2.67,0,0,0,1.8.5,6.78,6.78,0,0,0,2.52-.5v2.4a9.85,9.85,0,0,1-3.35.54,4.65,4.65,0,0,1-3.11-1,3.86,3.86,0,0,1-1.18-3.1v-6.24H140.1V271.4h2.24Z"/><path class="cls-2" d="M159,267.34a1.58,1.58,0,0,1-.48,1.24,1.72,1.72,0,0,1-1.21.43,1.78,1.78,0,0,1-1.22-.43,1.56,1.56,0,0,1-.49-1.24,1.48,1.48,0,0,1,.49-1.2,1.78,1.78,0,0,1,1.22-.43,1.72,1.72,0,0,1,1.21.43A1.51,1.51,0,0,1,159,267.34Zm-.31,16.54h-2.78V271.4h2.78Z"/><path class="cls-2" d="M175.05,271.4h3l-5.36,12.48H169.8l-5.33-12.48h3l3.8,9.46Z"/><path class="cls-2" d="M182.46,277.64a7.24,7.24,0,0,1,.57-2.92,5.32,5.32,0,0,1,1.51-2.08,6.58,6.58,0,0,1,2-1.17,6.27,6.27,0,0,1,2.21-.41,7.27,7.27,0,0,1,2.58.44,5,5,0,0,1,1.86,1.2,6.35,6.35,0,0,1,1.15,1.74,5.29,5.29,0,0,1,.46,2.07,10,10,0,0,1-.18,2.17h-9.38a3.06,3.06,0,0,0,1.56,2.38,6.22,6.22,0,0,0,3.22.79A8.9,8.9,0,0,0,194,281v2.39a10.32,10.32,0,0,1-4.47.86,7.52,7.52,0,0,1-5.06-1.72A6,6,0,0,1,182.46,277.64Zm9.7-1a2.87,2.87,0,0,0-.64-2.14,3,3,0,0,0-2.61-1.08,3.9,3.9,0,0,0-2.54.85,3.14,3.14,0,0,0-1.13,2.37Z"/><path class="cls-2" d="M211.68,283.88h-3.14l7.69-18.2h3.25l7.67,18.2H224L222.42,280h-9.13Zm5.83-14.3-3.2,7.77h7.07l-3.2-7.77c-.14-.38-.25-.72-.34-1C217.76,268.86,217.64,269.2,217.51,269.58Z"/><path class="cls-2" d="M233.29,282.31a7.2,7.2,0,0,1,0-9.34,5.73,5.73,0,0,1,4.47-1.91,5.87,5.87,0,0,1,4.78,2.29v-2H245v12.32a5.49,5.49,0,0,1-2,4.68,7.92,7.92,0,0,1-5,1.54,11.13,11.13,0,0,1-5.15-1.17v-2.55a9.29,9.29,0,0,0,4.78,1.27q4.57,0,4.58-3.69v-1.58a5.61,5.61,0,0,1-4.5,2A5.73,5.73,0,0,1,233.29,282.31Zm8.94-6.2a4.56,4.56,0,0,0-1.54-1.85,4.13,4.13,0,0,0-2.44-.75,3.67,3.67,0,0,0-2.78,1.15,4.62,4.62,0,0,0,0,6,3.67,3.67,0,0,0,2.78,1.15,4.35,4.35,0,0,0,4-2.44Z"/><path class="cls-2" d="M251.38,277.64a7.08,7.08,0,0,1,.58-2.92,5.4,5.4,0,0,1,1.5-2.08,6.7,6.7,0,0,1,2-1.17,6.35,6.35,0,0,1,2.21-.41,7.29,7.29,0,0,1,2.59.44,5,5,0,0,1,1.86,1.2,6.1,6.1,0,0,1,1.14,1.74,5.3,5.3,0,0,1,.47,2.07,10,10,0,0,1-.18,2.17h-9.39a3.09,3.09,0,0,0,1.56,2.38,6.26,6.26,0,0,0,3.23.79,8.9,8.9,0,0,0,3.95-.88v2.39a10.39,10.39,0,0,1-4.47.86,7.5,7.5,0,0,1-5.06-1.72A6,6,0,0,1,251.38,277.64Zm9.7-1a2.86,2.86,0,0,0-.63-2.14,3,3,0,0,0-2.62-1.08,3.87,3.87,0,0,0-2.53.85,3.14,3.14,0,0,0-1.13,2.37Z"/><path class="cls-2" d="M272.52,273.12a5.43,5.43,0,0,1,4.34-2.06,4.84,4.84,0,0,1,5.15,5.1v7.72h-2.78v-7.36a2.73,2.73,0,0,0-2.91-3,4.19,4.19,0,0,0-3.49,2.08v8.27h-2.78V271.4h2.47Z"/><path class="cls-2" d="M288.2,277.74a6.09,6.09,0,0,1,2.05-5,7.28,7.28,0,0,1,4.84-1.72,7.41,7.41,0,0,1,3.85,1v2.55a5.83,5.83,0,0,0-3.46-1,4.91,4.91,0,0,0-3.15,1,4.29,4.29,0,0,0,0,6.14,4.76,4.76,0,0,0,3.11,1.05,7.18,7.18,0,0,0,3.64-1v2.57a9.54,9.54,0,0,1-4.14.86,7.13,7.13,0,0,1-4.73-1.68A5.93,5.93,0,0,1,288.2,277.74Z"/><path class="cls-2" d="M311,280.81l3.72-9.41h2.91l-5.85,14.17c-1.2,2.9-2.87,4.34-5,4.34a7.16,7.16,0,0,1-1.64-.21v-2.36a4.26,4.26,0,0,0,1.28.18q2,0,3.09-2.91l.26-.63-5.93-12.58h3Z"/></g></g></svg>