<?xml version="1.0" encoding="UTF-8"?>
<svg id="OBJECTS" xmlns="http://www.w3.org/2000/svg" viewBox="0 0 500 500">
  <defs>
    <style>
      .cls-1 {
        fill: none;
        stroke: #231f20;
        stroke-miterlimit: 10;
        stroke-width: 1.3px;
      }

      .cls-2 {
        fill: #a8ac8f;
      }

      .cls-3 {
        fill: #e68b85;
      }

      .cls-4 {
        fill: #e3b88b;
      }
    </style>
  </defs>
  <path class="cls-2" d="M286.28,92.35c2.79-1.9,6.62-3.63,9.32-1.6,1.47,1.11,2.06,3.01,2.46,4.81,3.5,15.85-1.88,32.85-11.98,45.55-6.16,7.75-13.97,14.05-22.48,19.05-4.35,2.56-8.89,4.81-13.56,6.73-7.01,2.88-7.34,.09-6.88-6.8,1.07-16.11,9.54-30.95,18.77-43.88,6.64-9.29,14.9-17.43,24.35-23.85Z"/>
  <path class="cls-2" d="M229.27,175.28c-2.15-9.63-6.63-19.04-14.18-25.38-3.3-2.77-7.1-4.89-11-6.7-7.5-3.48-16.09-5.91-23.99-3.45-2.3,.71-4.53,1.88-6.06,3.73-4.35,5.26-1.49,13.17,1.93,19.08,5.99,10.38,13.3,20.11,22.47,27.82,6.76,5.68,19.4,14.86,28.81,14.32,5.92-.34,4.26-5.57,4.1-10.62-.2-6.31-.7-12.63-2.08-18.8Z"/>
  <path class="cls-2" d="M252.7,191.73c2.63-4.36,5.87-8.48,10.13-11.26,3.15-2.05,6.74-3.31,10.33-4.39,7.47-2.25,15.14-3.83,22.89-4.72,4.85-.56,10.24-.7,14.07,2.34,3.51,2.79,4.77,7.7,4.24,12.15s-2.58,8.56-4.71,12.51c-4.24,7.88-9.25,15.88-17.07,20.21-4.19,2.32-8.93,3.42-13.61,4.39-6.06,1.25-30.92,8.83-35.03,2.75-2.42-3.57,.61-13.15,1.6-16.96,1.56-5.98,3.96-11.73,7.16-17.02Z"/>
  <path class="cls-2" d="M286.12,267.57c7.56,4.22,15.93,6.79,24.37,8.74,6.88,1.59,13.88,2.79,20.93,3.13,1.1,.05,2.37,.01,3.08-.83,.57-.68,.58-1.66,.53-2.55-.82-13.83-9.69-25.91-19.74-35.44-3.89-3.7-8.13-7.21-13.15-9.11-4.09-1.54-8.52-1.94-12.88-2.32-7.39-.64-33.39-3.29-29.09,10.04,3.81,11.79,15.46,22.49,25.95,28.34Z"/>
  <path class="cls-2" d="M204.62,216.7c-11.23,2.28-21.42,9.3-27.55,18.98-6.13,9.68-8.13,21.89-5.4,33.02,14.56-.79,28.92-4.98,41.62-12.13,6.37-3.59,12.52-8.12,16.11-14.49,10.34-18.35-8.46-28.7-24.78-25.39Z"/>
  <path class="cls-2" d="M197.69,302.3c-1.45,4.58-2.73,9.24-3.23,14.02-.27,2.55-.31,5.18,.39,7.65,1.23,4.34,4.58,7.7,7.8,10.85,2.08,2.04,4.55,4.22,7.45,3.95,2.45-.23,4.36-2.18,5.92-4.08,8.39-10.23,22.18-34.98,12.63-47.94-3.88-5.27-10.84-5.6-16.57-3.53-8.38,3.02-11.88,11.15-14.38,19.07Z"/>
  <path class="cls-2" d="M259.37,310.93c-.91,6.3-1.82,12.78-.35,18.97,1.67,7.03,6.46,13.2,12.67,16.89s13.77,4.95,20.91,3.85c1.13-.17,2.31-.43,3.14-1.22,.78-.74,1.12-1.82,1.4-2.86,4.41-16.74-1.4-34.75-12.22-47.81-3.62-4.37-12.74-15.34-19.28-11.46-5.98,3.54-5.45,17.86-6.28,23.64Z"/>
  <path class="cls-4" d="M291.31,417.03c3.61-6.23,7.33-13.66,4.51-20.29-2.72-6.4-10.26-8.98-16.96-10.85-9.15-2.55-19.23-5.6-28.84-4.07-8.29,1.32-14.75,7.45-23.79,7.64-2.51,.05-5.04-.28-7.51,.18s-4.97,1.93-5.69,4.33c-.67,2.2,.32,4.58,1.69,6.43,1.37,1.85,3.12,3.4,4.35,5.35,1.17,1.86,1.68,4.58,.04,6.04-.82,.73-2.01,.94-3.1,.79-3.07-.41-5.19-3.17-6.97-5.71-2.36-3.37-4.73-6.75-7.09-10.12-2.34-3.34-5.49-7.08-9.55-6.64-4.87,.53-6.37,6.07-3.5,9.44,1.29,1.52,3.68,2.48,5.15,4.06,2.26,2.43,4.19,5.26,6.26,7.86,6.94,8.71,14.04,17.56,23.25,23.83,3.16,2.15,6.58,3.98,10.27,4.97,4.49,1.2,9.21,1.11,13.86,.97,9.24-.29,19.03-.86,27.43-5.11,8.55-4.32,11.5-11,16.2-19.1Z"/>
  <path class="cls-2" d="M222.88,96.78c-7.59-5.97-17.92-8.31-27.34-6.17-1.33,.3-2.72,.74-3.58,1.79-1.79,2.18-.32,5.41,1.19,7.79,4.82,7.55,10.06,15.05,17.24,20.4,6.31,4.7,18.85,10.69,22.83,.26,3.35-8.8-3.78-18.9-10.35-24.08Z"/>
  <path class="cls-3" d="M243.03,131.35c-6.03-6.96-1.12-16.54,2.31-23.29,3.01-5.93,6.5-11.73,11.38-16.25s11.29-7.68,17.94-7.5c1.06,.03,2.17,.16,3.04,.76,1.45,1.01,1.82,3.09,1.32,4.78-.5,1.7-1.67,3.1-2.81,4.45-10.66,12.62-21.31,25.24-31.97,37.86"/>
  <path class="cls-3" d="M198.05,197.2c-9.1-.02-18.4,0-27.03,2.89-3.42,1.15-7.31,4.01-6.25,7.45,.96,3.12,5.07,3.67,8.33,3.59,17.38-.39,39.98,.47,56.48-5.52,11.1-4.03,1.27-6.67-5.31-7.41-8.7-.98-17.48-.98-26.23-1Z"/>
  <path class="cls-3" d="M286.77,279.37c2.35,1.52,4.55,3.25,6.41,5.33,2.52,2.82,5.44,7.64,4.84,11.64-.77,5.18-6.62,3.82-10.46,1.67-4.81-2.69-8.37-7.1-13.03-10.02-6.15-3.86-12.18-7.96-18.19-12.04-1.55-1.05-3.16-2.18-3.97-3.86-.82-1.68-.5-4.07,1.16-4.93,1.01-.52,2.22-.37,3.33-.17,8.34,1.51,16.2,4.96,23.72,8.86,2.1,1.09,4.19,2.23,6.17,3.51Z"/>
  <path class="cls-3" d="M175.65,288.1c-2.84,2.71-5.41,6.07-5.73,9.99-.32,3.91,2.46,8.25,6.39,8.36,3.64,.1,6.35-3.1,9.23-5.33,2.31-1.78,4.97-3.02,7.56-4.35,4.29-2.21,8.43-4.71,12.38-7.47,8.34-5.84,11.07-16.84-2.42-14.69-9.87,1.57-20.19,6.61-27.41,13.5Z"/>
  <path class="cls-3" d="M269.33,160.15c3.42-2.22,7.08-4.51,11.15-4.55,1.5-.01,3.19,.41,3.96,1.7,.89,1.49,.13,3.5-1.2,4.62-1.32,1.12-3.06,1.57-4.71,2.09-5.43,1.71-10.53,4.43-14.99,7.96-3.14,2.49-6.98,9.4-11.58,8.32-9.55-2.24,14.32-18.16,17.37-20.14Z"/>
  <path class="cls-1" d="M173.86,428.9c-15.53,1.76-31.28,1.59-46.77-.5-4.04-.55-8.44-1.15-11.95,.92,7.71,3.98,16.71,4.41,25.39,4.64,25.14,.67,50.49,.35,75.13-4.67,3.57-.73,7.14-1.56,10.78-1.76,13.58-.76,26.23,7.14,39.79,8.23,10.77,.86,21.34-2.6,31.93-4.69,22.3-4.4,45.29-2.7,67.96-.99,4.05,.31,8.28,.66,11.76,2.76-1.97,2.66-5.87,2.69-9.17,2.45-28.16-2.06-56.28-4.5-84.38-7.31-4.84-.48-10.38-1.41-12.87-5.58-3.51-5.88,1.65-13.07,6.78-17.59,1.37-1.2,3.05-2.46,4.82-2.07,3.64,.81-3.37,12.84-3.94,15.45,2.23,1.28,5.15,.63,7.22-.9,2.06-1.53,3.44-3.78,4.78-5.97,3.17-5.23,6.35-10.45,9.52-15.68,1.6-2.64,2.95-6.61,.39-8.31-1.06-.71-2.43-.67-3.7-.7-8.17-.18-15.78-3.85-23.62-6.16-10.87-3.21-22.5-3.83-33.65-1.78-14.7,2.7-28.91,9.95-43.78,8.48-1.89-.19-4.22-.98-4.36-2.87,9.4-5.19,20.66-6.29,31.3-4.81,10.64,1.47,20.79,5.35,30.64,9.63,9.32,4.05,17.04,6.39,27.19,6.09,9.99-.3,19.85-.27,29.83-1.46,1.86-.22,3.81-.51,5.27-1.67,1.46-1.17,2.12-3.54,.87-4.93-1.09-1.21-3.12-1.12-4.48-.23-1.37,.89-2.22,2.36-3.02,3.79-2.49,4.46-4.86,8.99-7.12,13.58-4.72,9.6-9.9,20.41-19.96,24.03-2.83,1.02-5.85,1.37-8.84,1.71-19.83,2.26-39.78,4.53-59.71,3.52-1.65-.08-3.36-.2-4.84-.95-2.02-1.02-3.3-3.04-4.64-4.88-4.88-6.71-11.55-11.86-17.26-17.87-5.71-6.02-10.66-13.51-10.69-21.8-2.1-.43-5.23-.05-5.13,2.09,.08,1.67,2.19,2.3,3.85,2.46,14.44,1.43,29.03,1.36,43.45-.21,4.25-.46,8.65-1.11,12.24-3.43,9.07-5.86,12.11-19.93,12-29.82-.11-9.96,1.17-19.7,1.67-29.62,.68-13.61-1.28-27.2-3.24-40.68-.57-3.89-1.21-7.97-3.65-11.06-4.03-5.11-11.4-5.75-17.9-5.96-1.97-.06-3.98-.12-5.85,.5-2.4,.79-4.31,2.58-6.14,4.33-6.56,6.26-13.17,12.59-18.21,20.13-5.03,7.54-8.43,16.5-7.78,25.55,.35,4.94,1.88,9.72,3.67,14.33,4.27,11.04,10.07,21.48,17.19,30.94,4.09-1.42,6.17-5.82,8.17-9.66,2.89-5.56,6.47-10.76,10.63-15.45,4.16-4.69,8.95-8.94,12.03-14.4,4.35-7.72,4.78-17.23,2.49-25.79-2.29-8.56-7.11-16.25-12.72-23.1-1.69-2.06-4.05-4.26-6.63-3.61-1.26,.32-2.26,1.28-3.12,2.26-7.32,8.32-9.31,19.94-10.61,30.95-1.72,14.59-2.71,29.6,1.14,43.78,.13-23.78,4.36-47.53,12.46-69.88,.61-1.68,1.27-3.4,2.5-4.69,2.33-2.46,6.08-2.8,9.48-2.83,17.53-.14,35.08,4.01,50.68,11.99,6.41,3.28,12.77,7.48,16.1,13.86,2.76,5.3,3.12,11.51,3.01,17.48-.3,16.73-3.84,33.4-10.35,48.82-3.29-12.78-9.81-24.71-18.78-34.39-4-4.31-8.48-8.2-11.99-12.91-7.66-10.27-10.04-23.42-12.2-36.04,13.38,3.14,25.57,11.09,33.82,22.08,8.25,10.98,12.51,24.9,11.81,38.62-2.8-9.78-3.71-20-6.05-29.91-2.34-9.9-6.38-19.85-14.05-26.53-11.25-9.79-28.39-10.99-38.86-21.62-6.73-6.83-9.68-17.18-7.56-26.54,.84-3.71,2.41-7.22,3.16-10.95,.64-3.19,.66-6.48,.57-9.73-.12-4.24-.56-8.81-3.36-11.98-3.43-3.88-9.27-4.42-14.42-3.86-17.93,1.97-33.78,14.29-42.49,30.09-8.71,15.79-10.85,34.61-8.66,52.52,11.11-5.45,23.64-7.02,35.72-9.71,12.08-2.69,24.5-6.97,32.65-16.27,4.21-4.8,7.02-10.67,9.23-16.67,2.5-6.79,4.29-14.18,2.68-21.23s-7.45-13.57-14.68-13.85c-5.14-.2-9.86,2.6-14.23,5.31-7.74,4.8-15.54,9.65-22.04,16.02-6.5,6.37-11.68,14.48-12.9,23.5,.57-6.97,6.63-12.07,12.37-16.06,10.4-7.23,21.38-13.62,32.81-19.08,6.26-2.99,12.73-5.73,19.58-6.88,5.45-.92,10.14-.26,15.45,.18,5.97,.5,12.07-.14,18.07,.32,12,.92,24.16,3.67,34.15,10.69,9.78,6.87,16.7,17.33,20.63,28.62,3.93,11.29,5.04,23.4,4.76,35.35,.05-2.31-11.26-7.19-13.17-8.02-5.23-2.27-10.79-3.77-16.46-4.41-11.53-1.3-23.58,.52-34.89-2.53-20.97-5.65-30.21-28.7-22.79-48.5,.34-.9,.76-1.84,1.6-2.32,.75-.43,1.67-.39,2.54-.32,26.73,1.97,51.48,10.63,68.28,32.74-7.04-5.98-14.84-11.1-23.21-15-7.69-3.58-15.83-6.12-23.61-9.5-11.96-5.19-31.64-17.47-27.26-32.88,4.24-14.92,16.86-26.71,30.81-32.72,17.06-7.36,36.29-7.64,54.84-6.52-4.2,5.51-4.53,12.92-5.53,19.78-1.55,10.66-5.57,21.65-14.2,28.1-9,6.73-21.06,7.22-32.3,7.41-8.26,.14-16.88,.18-24.29-3.47,2.08-10.75,6.76-21.09,14.05-29.25,7.3-8.16,17.28-14.05,28.09-15.75-10.82,.12-21.56,4.14-29.79,11.17-6.4,5.46-11.2,12.54-17.01,18.63-2.25,2.36-4.76,4.64-7.87,5.63-2.9,.92-6.03,.63-9.06,.34-7.88-.78-15.76-1.56-23.6-2.68-13.81-1.99-27.82-5.2-39.44-12.92-11.64-7.73-20.28-19.86-23.79-33.39,4.86-6.34,12.11-10.56,19.75-12.89,7.64-2.33,15.71-2.9,23.7-2.97,7.87-.07,15.87,.35,23.32,2.9,10.91,3.74,20.1,12.1,25.04,22.51,4.95,10.41,5.64,22.73,2.11,33.7-5.86-10.86-11.86-21.92-20.83-30.4-15.72-14.88-39.55-19.86-60.5-14.41,30.61,1.23,60.28,17.32,78.02,42.3-.65-24.29,1.22-48.87,14.56-69.18,13.26-20.18,36-33.82,60.05-36.02-10.26,17.71-9.77,41.62-24.83,55.48-11.6,10.67-28.79,11.85-44.54,12.47,1.32-18.7,13.16-36.29,29.97-44.57-8.93,5.71-17.06,12.68-24.08,20.62-3.17,3.59-6.55,7.64-11.27,8.43-3.41,.57-6.84-.71-10.02-2.07-10.26-4.39-20.05-9.86-29.17-16.28-3.11-2.19-6.17-4.52-8.6-7.44-7.86-9.45-7.74-22.92-10.88-34.8,10.23,.05,20.56,.43,30.46,2.98,9.91,2.55,19.46,7.46,26.05,15.28,9.39,11.15,11.52,27.89,5.23,41.04-8.91-21.31-26.04-39.06-47.03-48.71,11.47,5.27,21.59,13.95,29.3,23.87,2.61,3.36,20.41,31.51,12.14,32.48-1.55,.18-3.03-.6-4.39-1.35-23.08-12.82-45.41-27.3-70.05-36.79-6.79-2.62-14.77-4.75-21.04-1.05,.56,2.47,3.06,3.93,5.35,5.03,27.17,12.97,58.5,15.98,84.72,30.77,4.96,2.8,9.73,6.02,15.05,8.07,11.68,4.52,24.79,3,37.03,.3,12.38-2.73,24.5-6.6,36.17-11.55,10.02-4.25,20.31-9.89,25.26-19.58-2.55-1.71-5.93-.06-8.53,1.58-12.36,7.83-24.73,15.65-37.09,23.48"/>
</svg>